Coordinates
version=1
nRows=14
nColumns=40
inDegrees=yes

Units are S.I. units (second, meters, Newtons, ...)
Angles are in degrees.

endheader
time	pelvis_tilt	pelvis_list	pelvis_rotation	pelvis_tx	pelvis_ty	pelvis_tz	hip_flexion_r	hip_adduction_r	hip_rotation_r	knee_angle_r	knee_angle_r_beta	ankle_angle_r	subtalar_angle_r	mtp_angle_r	hip_flexion_l	hip_adduction_l	hip_rotation_l	knee_angle_l	knee_angle_l_beta	ankle_angle_l	subtalar_angle_l	mtp_angle_l	lumbar_extension	lumbar_bending	lumbar_rotation	arm_flex_r	arm_add_r	arm_rot_r	elbow_flex_r	pro_sup_r	wrist_flex_r	wrist_dev_r	arm_flex_l	arm_add_l	arm_rot_l	elbow_flex_l	pro_sup_l	wrist_flex_l	wrist_dev_l
      3.81000000	    -16.74358304	      2.24011804	      2.26388221	      0.93118997	      1.01774920	     -0.36622873	      3.77122117	      1.25318997	     -4.99449820	     22.99230502	      0.40129143	     -1.96811126	      0.00000000	      0.00000000	     57.32576014	      3.70042120	      0.70866999	     88.46779465	      1.54405430	     -0.63871603	      0.00000000	      0.00000000	      2.81073870	     -0.78301951	     12.45978613	    -16.53721330	    -23.14579128	     -4.22707445	    119.12352811	     58.44233290	      0.00000000	      0.00000000	    -45.19613096	    -21.35280471	     -2.35280790	    111.64276952	     56.80083569	      0.00000000	      0.00000000
      3.82000000	    -17.44942568	      2.89877587	      3.07929197	      0.93341884	      1.02397912	     -0.36603410	      1.33276730	      0.53614631	     -6.36196959	     20.29381820	      0.35419395	     -7.45915176	      0.00000000	      0.00000000	     58.34601428	      4.29807751	     -0.76785277	     83.07358358	      1.44990755	      0.06679455	      0.00000000	      0.00000000	      3.81897814	     -2.00138709	     12.18212826	    -16.79343102	    -22.52918594	     -3.55659318	    122.27888672	     59.13732600	      0.00000000	      0.00000000	    -47.31338863	    -21.39120412	     -3.69527554	    113.94201531	     56.89408724	      0.00000000	      0.00000000
      3.83000000	    -17.93772871	      3.17272369	      4.27080454	      0.93564719	      1.03032594	     -0.36640909	     -1.09305641	      0.30746228	     -8.09996720	     17.84082403	      0.31138112	    -13.26807616	      0.00000000	      0.00000000	     58.81580095	      5.07703099	     -1.83247340	     77.32155651	      1.34951574	      0.55820245	      0.00000000	      0.00000000	      4.64064232	     -2.82328553	     11.50578063	    -17.00749519	    -22.14920163	     -3.19497654	    124.79254204	     59.77049837	      0.00000000	      0.00000000	    -49.09531097	    -21.32419384	     -5.06458780	    115.78188416	     56.95665090	      0.00000000	      0.00000000
      3.84000000	    -18.13936724	      3.02916392	      5.52473585	      0.93760315	      1.03633180	     -0.36725910	     -3.55286032	      0.58267308	    -10.42076848	     15.57073972	      0.27176068	    -19.04134449	      0.00000000	      0.00000000	     58.65678188	      5.94153869	     -2.28634634	     71.13601391	      1.24155766	      0.77559722	      0.00000000	      0.00000000	      5.03757194	     -3.09937293	     10.46122806	    -17.22877710	    -21.82386795	     -2.73518149	    126.80102744	     60.54392737	      0.00000000	      0.00000000	    -50.55609813	    -20.90088047	     -6.36885867	    117.31983876	     57.01125434	      0.00000000	      0.00000000
      3.85000000	    -18.38142613	      1.70464756	      6.01316775	      0.93857265	      1.04063716	     -0.36740701	     -4.74289264	      2.05903182	    -11.08606248	     15.75577137	      0.27499009	    -20.45898999	      0.00000000	      0.00000000	     58.73161328	      5.13832281	     -3.03661023	     65.46709489	      1.14261636	      1.00759731	      0.00000000	      0.00000000	      5.52778883	     -1.91913289	     10.17395757	    -17.75797742	    -22.24678879	     -2.74865757	    128.13692665	     60.68792889	      0.00000000	      0.00000000	    -51.86687478	    -20.77962933	     -6.78611842	    118.33646303	     57.02642400	      0.00000000	      0.00000000
      3.86000000	    -18.50818058	      2.12299884	      7.57865394	      0.94015685	      1.04543368	     -0.37010063	     -6.59587852	      1.64280106	    -13.79464625	     14.68752053	      0.25634559	    -27.57332461	      0.00000000	      0.00000000	     57.59457785	      7.35649868	     -2.97339299	     58.02519524	      1.01273071	     -0.28569821	      0.00000000	      0.00000000	      5.73690914	     -2.67043817	      8.91632533	    -18.14488989	    -22.12975976	     -2.01532473	    130.27351974	     61.58546235	      0.00000000	      0.00000000	    -52.44360232	    -19.90248388	     -8.34787134	    119.70875127	     57.04520100	      0.00000000	      0.00000000
      3.87000000	    -18.46301300	      0.65265159	      8.33026053	      0.94160577	      1.04723511	     -0.37105262	     -7.60414402	      3.40073202	    -13.57722917	     15.93441135	      0.27810794	    -28.69058467	      0.00000000	      0.00000000	     57.13946099	      6.73909831	     -3.99168928	     52.79475597	      0.92144232	     -0.27976488	      0.00000000	      0.00000000	      6.09104266	     -1.24584542	      8.23218939	    -19.21199666	    -22.62495153	     -1.95071456	    131.26437614	     61.71350359	      0.00000000	      0.00000000	    -53.48799733	    -19.70212473	     -8.79375436	    120.78351539	     57.06036431	      0.00000000	      0.00000000
      3.88000000	    -18.37052045	      0.72597074	      8.56704222	      0.93993644	      1.05040960	     -0.37220827	     -7.82750336	      3.19827174	    -12.35290943	     18.70715866	      0.32650151	    -31.04000539	      0.00000000	      0.00000000	     55.24473339	      8.11135613	     -2.75249789	     44.75466224	      0.78111621	     -2.08435832	      0.00000000	      0.00000000	      5.46737728	     -1.42402647	      8.18446361	    -19.21379994	    -23.15616429	     -1.44129901	    132.57884511	     62.13862037	      0.00000000	      0.00000000	    -52.91636887	    -18.48536717	     -9.73981102	    122.06475441	     57.07454955	      0.00000000	      0.00000000
      3.89000000	    -17.89086843	      0.74922447	      8.92954641	      0.93989757	      1.05226068	     -0.37294484	     -8.25363106	      3.35557455	    -10.13283743	     22.47970397	      0.39234485	    -30.61403995	      0.00000000	      0.00000000	     53.08199850	      9.06180941	     -2.42002866	     37.93282303	      0.66205266	     -3.56204685	      0.00000000	      0.00000000	      4.81542207	     -1.48349533	      7.67758456	    -19.52064140	    -23.39527453	     -0.92396554	    132.44339645	     62.57343733	      0.00000000	      0.00000000	    -52.74495145	    -17.82550781	    -10.52929874	    122.71289521	     57.07642310	      0.00000000	      0.00000000
      3.90000000	    -17.42417837	      0.40127447	      8.99506101	      0.93940162	      1.05303167	     -0.37286650	     -8.25967662	      4.08450732	     -7.14860350	     26.87249274	      0.46901348	    -29.45953986	      0.00000000	      0.00000000	     50.94967923	      9.48374398	     -1.43659667	     31.81695421	      0.55531061	     -4.05775461	      0.00000000	      0.00000000	      4.08349191	     -1.27398657	      7.46804188	    -19.88936288	    -23.69735264	     -0.58840907	    131.75635273	     62.91474029	      0.00000000	      0.00000000	    -52.36002918	    -17.06640485	    -11.09010785	    123.38837074	     57.07737561	      0.00000000	      0.00000000
      3.91000000	    -17.04713799	     -0.35629984	     10.10441097	      0.94125086	      1.05186474	     -0.37342686	     -8.80383244	      5.59936545	     -5.46750691	     29.70500159	      0.51845008	    -29.53524246	      0.00000000	      0.00000000	     50.17253887	      9.78867218	     -1.87351141	     29.45299945	      0.51405182	     -3.67297448	      0.00000000	      0.00000000	      3.97556432	     -0.68866865	      6.20567398	    -21.42472476	    -23.41444915	     -0.34244540	    130.90576153	     62.95641465	      0.00000000	      0.00000000	    -52.21822174	    -16.94481807	    -11.29665031	    123.62499283	     57.06190075	      0.00000000	      0.00000000
      3.92000000	    -16.37059289	      0.09549199	      8.73122370	      0.93916240	      1.05246547	     -0.37150976	     -7.44781877	      5.23998132	     -2.08192738	     37.45126838	      0.65364794	    -26.56934894	      0.00000000	      0.00000000	     46.43259469	      9.95194353	      1.42472177	     21.66848190	      0.37818635	     -4.74687802	      0.00000000	      0.00000000	      2.56843664	     -1.21517565	      7.06516525	    -20.84154498	    -23.76035500	     -0.28225272	    128.65149406	     63.31648265	      0.00000000	      0.00000000	    -50.87609322	    -15.93958365	    -11.82666255	    123.83992742	     57.00298738	      0.00000000	      0.00000000
      3.93000000	    -15.79149655	     -0.60495973	      9.69423954	      0.94067488	      1.05019706	     -0.37137248	     -7.37542990	      6.69096771	     -1.32805715	     41.53073960	      0.72484815	    -27.09716819	      0.00000000	      0.00000000	     45.19717179	      9.95729712	      1.02301866	     20.14112787	      0.35152900	     -4.35027573	      0.00000000	      0.00000000	      1.93173774	     -0.79299194	      5.72849012	    -22.38013418	    -23.36086796	     -0.15448248	    126.89469039	     63.35618297	      0.00000000	      0.00000000	    -50.24852515	    -15.75619141	    -11.89747459	    123.83806066	     56.98923696	      0.00000000	      0.00000000
      3.94000000	    -14.98011458	     -0.46680751	      8.87372676	      0.94007441	      1.04770948	     -0.37030806	     -6.06249751	      6.11062426	     -1.28035073	     48.99585953	      0.85513907	    -26.73978182	      0.00000000	      0.00000000	     42.83007827	      9.60850019	      2.06751379	     17.38125691	      0.30336016	     -3.98250061	      0.00000000	      0.00000000	      0.87280971	     -0.92992373	      5.94941688	    -22.33350046	    -23.51476378	     -0.60842200	    124.10678786	     63.40383405	      0.00000000	      0.00000000	    -48.87357185	    -15.03977516	    -11.95383950	    123.86128994	     56.94993411	      0.00000000	      0.00000000
